<?xml version="1.0" encoding="utf-8"?>
<!-- Generator: Adobe Illustrator 21.1.0, SVG Export Plug-In . SVG Version: 6.00 Build 0)  -->
<svg version="1.1" id="Layer_1" xmlns:serif="http://www.serif.com/"
	 xmlns="http://www.w3.org/2000/svg" xmlns:xlink="http://www.w3.org/1999/xlink" x="0px" y="0px" viewBox="0 0 2000 2000"
	 style="enable-background:new 0 0 2000 2000;" xml:space="preserve">
<path d="M1755.6,0C1890.5,0,2000,109.5,2000,244.4v1511.3c0,134.9-109.5,244.4-244.4,244.4h-415.9v-753.6h260.2l49.5-322.7h-309.7
	V714.2c0-88.3,43.3-174.4,182-174.4h140.8V265.1c0,0-127.8-21.8-249.9-21.8c-255,0-421.7,154.6-421.7,434.4v246H707.4v322.7h283.5
	V2000H244.4C109.5,2000,0,1890.5,0,1755.6V244.4C0,109.5,109.5,0,244.4,0L1755.6,0L1755.6,0z"/>
</svg>
