<?xml version="1.0" encoding="utf-8"?>
<!-- Generator: Adobe Illustrator 21.1.0, SVG Export Plug-In . SVG Version: 6.00 Build 0)  -->
<svg version="1.1" id="Layer_1" xmlns:serif="http://www.serif.com/"
	 xmlns="http://www.w3.org/2000/svg" xmlns:xlink="http://www.w3.org/1999/xlink" x="0px" y="0px" viewBox="0 0 2000 2000"
	 style="enable-background:new 0 0 2000 2000;" xml:space="preserve">
<g transform="matrix(1.01619,0,0,1.01619,44,43.8384)">
	<path d="M940.8-43.1C673.5-43.1,640-42,535-37.2C430.3-32.4,358.8-15.8,296.2,8.5C231.5,33.7,176.6,67.3,121.9,122
		S33.5,231.6,8.4,296.3c-24.3,62.6-41,134.1-45.7,238.9c-4.8,105-5.9,138.5-5.9,405.7c0,267.3,1.1,300.8,5.9,405.7
		c4.8,104.7,21.4,176.3,45.7,238.9c25.1,64.7,58.8,119.6,113.5,174.3c54.7,54.7,109.6,88.4,174.3,113.5
		c62.6,24.3,134.1,41,238.9,45.7c105,4.8,138.5,5.9,405.7,5.9c267.3,0,300.8-1.1,405.7-5.9c104.7-4.8,176.3-21.4,238.9-45.7
		c64.7-25.1,119.6-58.8,174.3-113.5c54.7-54.7,88.4-109.6,113.5-174.3c24.3-62.6,41-134.1,45.7-238.9c4.8-105,5.9-138.5,5.9-405.7
		c0-267.3-1.1-300.8-5.9-405.7c-4.8-104.7-21.4-176.3-45.7-238.9c-25.1-64.7-58.8-119.6-113.5-174.3
		C1705,67.3,1650.1,33.7,1585.4,8.5c-62.6-24.3-134.1-41-238.9-45.7C1241.5-42,1208-43.1,940.8-43.1z M940.8,134.2
		c262.8,0,293.9,1,397.6,5.7c95.9,4.4,148.1,20.4,182.7,33.9c45.9,17.9,78.7,39.2,113.1,73.6s55.8,67.2,73.6,113.1
		c13.5,34.7,29.5,86.8,33.9,182.7c4.7,103.8,5.7,134.9,5.7,397.6c0,262.8-1,293.9-5.7,397.6c-4.4,95.9-20.4,148.1-33.9,182.7
		c-17.9,45.9-39.2,78.7-73.6,113.1s-67.2,55.8-113.1,73.6c-34.7,13.5-86.8,29.5-182.7,33.9c-103.8,4.7-134.9,5.7-397.6,5.7
		c-262.8,0-293.9-1-397.6-5.7c-95.9-4.4-148.1-20.4-182.7-33.9c-45.9-17.9-78.7-39.2-113.2-73.6c-34.4-34.4-55.8-67.2-73.6-113.1
		c-13.5-34.7-29.5-86.8-33.9-182.7c-4.7-103.8-5.7-134.9-5.7-397.6c0-262.8,1-293.9,5.7-397.6c4.4-95.9,20.4-148.1,33.9-182.7
		c17.8-45.9,39.2-78.7,73.6-113.1s67.2-55.8,113.2-73.6c34.7-13.5,86.8-29.5,182.7-33.9C646.9,135.2,678,134.2,940.8,134.2z"/>
	<path d="M940.8,1268.9c-181.2,0-328-146.9-328-328c0-181.2,146.9-328,328-328c181.2,0,328,146.9,328,328
		C1268.8,1122.1,1121.9,1268.9,940.8,1268.9z M940.8,435.6c-279.1,0-505.3,226.2-505.3,505.3s226.2,505.3,505.3,505.3
		s505.3-226.2,505.3-505.3S1219.9,435.6,940.8,435.6z"/>
	<path d="M1584.2,415.6c0,65.2-52.9,118.1-118.1,118.1S1348,480.8,1348,415.6s52.9-118.1,118.1-118.1
		C1531.3,297.5,1584.2,350.4,1584.2,415.6z"/>
</g>
</svg>
