<?xml version="1.0" encoding="utf-8"?>
<!-- Generator: Adobe Illustrator 21.1.0, SVG Export Plug-In . SVG Version: 6.00 Build 0)  -->
<svg version="1.1" id="Layer_1" xmlns="http://www.w3.org/2000/svg" xmlns:xlink="http://www.w3.org/1999/xlink" x="0px" y="0px"
	 viewBox="0 0 24 24" style="enable-background:new 0 0 24 24;" xml:space="preserve">
<style type="text/css">
	.st0{fill:#FFFFFF;}
</style>
<title></title>
<path class="st0" d="M17.5,14.4c-0.3-0.1-1.8-0.9-2-1c-0.3-0.1-0.5-0.1-0.7,0.1c-0.2,0.3-0.8,1-0.9,1.2c-0.2,0.2-0.3,0.2-0.6,0.1
	c-0.3-0.1-1.3-0.5-2.4-1.5c-0.9-0.8-1.5-1.8-1.7-2.1c-0.2-0.3,0-0.5,0.1-0.6c0.1-0.1,0.3-0.3,0.5-0.5C9.9,9.9,9.9,9.8,10,9.6
	c0.1-0.2,0-0.4,0-0.5C9.9,8.9,9.3,7.5,9.1,6.9C8.8,6.3,8.6,6.4,8.4,6.4c-0.2,0-0.4,0-0.6,0S7.3,6.4,7,6.7C6.8,7,6,7.7,6,9.2
	s1.1,2.9,1.2,3.1c0.1,0.2,2.1,3.2,5.1,4.5c0.7,0.3,1.3,0.5,1.7,0.6c0.7,0.2,1.4,0.2,1.9,0.1c0.6-0.1,1.8-0.7,2-1.4
	c0.3-0.7,0.3-1.3,0.2-1.4C18,14.5,17.8,14.4,17.5,14.4 M12.1,21.8L12.1,21.8c-1.8,0-3.5-0.5-5.1-1.4l-0.4-0.2l-3.8,1l1-3.6l-0.2-0.4
	c-1-1.6-1.5-3.4-1.5-5.3C2.1,6.4,6.6,2,12.1,2c2.7,0,5.1,1,7,2.9c1.9,1.9,2.9,4.4,2.9,7C22,17.3,17.5,21.8,12.1,21.8 M20.5,3.4
	C18.2,1.2,15.2,0,12,0C5.5,0,0.1,5.3,0.1,11.9c0,2.1,0.5,4.1,1.6,5.9L0,24l6.3-1.7c1.7,0.9,3.7,1.4,5.7,1.4h0
	c6.6,0,11.9-5.3,11.9-11.9C24,8.7,22.8,5.7,20.5,3.4"/>
</svg>
